<?xml version="1.0" standalone="no"?>
<!DOCTYPE svg PUBLIC "-//W3C//DTD SVG 1.1//EN" "http://www.w3.org/Graphics/SVG/1.1/DTD/svg11.dtd">
<svg xmlns="http://www.w3.org/2000/svg">
<metadata></metadata>
<defs>
<font id="prototypo-" horiz-adv-x="1191">
<font-face units-per-em="1024" ascent="800" descent="-205" />
<missing-glyph horiz-adv-x="500" />
<glyph unicode="&#xd;" horiz-adv-x="681" />

<glyph unicode="A" horiz-adv-x="692.5" d="M 326 698 L 560 91 C 560 91 560 91 560 91 L 683 82 C 709 80 724 65 724 41 C 724 15 709 0 683 0 C 644 0 604 -18 565 -18 L 565 -18 C 503 -18 440 0 378 0 C 352 0 337 15 337 41 C 337 65 352 80 378 82 L 501 91 C 501 91 501 91 501 91 L 459 202 L 136 202 L 94 91 C 94 91 94 91 94 91 L 217 82 C 243 80 258 65 258 41 C 258 15 243 0 217 0 C 155 0 92 -18 30 -18 L 30 -18 C -9 -18 -48 0 -88 0 C -114 0 -129 15 -129 41 C -129 65 -114 80 -88 82 L 35 91 C 35 91 35 91 35 91 L 271 698 L 326 698 Z M 298 630 L 155 251 L 441 251 L 298 630 Z"/>

<glyph unicode="B" horiz-adv-x="581.5" d="M 300 698 C 404 698 460 628 460 499 C 460 418 421 367 350 354 L 348 354 L 348 352 L 350 352 C 438 337 485 280 485 190 C 485 66 416 0 287 0 L 15 -18 C -31 -18 -77 0 -123 0 C -149 0 -164 15 -164 41 C -164 65 -149 80 -123 82 L 0 91 C 0 91 0 91 0 91 L 0 607 C 0 607 0 607 0 607 L -123 616 C -149 616 -164 631 -164 657 C -164 683 -149 698 -123 698 C -77 698 -31 716 15 716 L 300 698 Z M 60 668 L 60 363 L 274 363 C 356 363 400 417 400 515 C 400 614 352 668 264 668 L 149 668 Z M 60 31 L 294 31 C 379 31 425 84 425 184 C 425 284 376 337 285 337 L 191 337 L 60 337 Z"/>

<glyph unicode="C" horiz-adv-x="600.5" d="M 0 349 C 0 580 107 705 306 705 C 397 705 466 685 502 649 L 475 601 C 443 633 384 650 306 650 C 146 650 60 545 60 349 C 60 151 146 45 306 45 C 382 45 441 63 475 97 L 502 49 C 466 13 397 -7 306 -7 C 107 -7 0 118 0 349 Z"/>

<glyph unicode="D" horiz-adv-x="630.5" d="M 204 698 C 379 698 473 576 473 349 C 473 122 379 0 204 0 L 15 -18 C -31 -18 -77 0 -123 0 C -149 0 -164 15 -164 41 C -164 65 -149 80 -123 82 L 0 91 C 0 91 0 91 0 91 L 0 607 C 0 607 0 607 0 607 L -123 616 C -149 616 -164 631 -164 657 C -164 683 -149 698 -123 698 C -77 698 -31 716 15 716 L 204 698 Z M 204 668 L 60 668 L 60 31 L 204 31 C 355 31 437 142 437 349 C 437 556 355 668 204 668 Z"/>

<glyph unicode="E" horiz-adv-x="522.5" d="M 403 0 L 30 -18 C -9 -18 -47 0 -86 0 C -112 0 -127 15 -127 41 C -127 64 -112 79 -86 82 L 0 91 C 0 91 0 91 0 91 L 0 607 C 0 607 0 607 0 607 L -86 616 C -112 616 -127 631 -127 657 C -127 683 -112 698 -86 698 C -47 698 -9 716 30 716 L 400 698 L 418 698 C 418 648 400 598 400 548 C 400 495 412 507 359 507 C 309 507 322 495 318 548 L 309 671 C 309 671 309 671 309 671 L 60 671 L 60 355 L 275 355 C 275 355 275 355 275 355 L 284 417 C 284 470 271 458 325 458 C 378 458 366 470 366 417 C 366 391 384 366 384 341 L 384 341 C 384 316 366 290 366 265 C 366 212 378 224 325 224 C 279 224 291 212 284 265 L 275 327 C 275 327 275 327 275 327 L 60 327 L 60 27 L 312 27 C 312 27 312 27 312 27 L 321 113 C 321 166 308 154 362 154 C 415 154 403 166 403 113 C 403 75 421 38 421 0 L 403 0 Z"/>

<glyph unicode="F" horiz-adv-x="503.5" d="M 60 344 L 287 344 C 287 344 287 344 287 344 L 296 467 C 296 520 284 508 337 508 C 390 508 378 520 378 467 C 378 421 396 376 396 330 L 396 330 C 396 285 378 239 378 193 C 378 140 390 152 337 152 C 288 152 300 140 296 193 L 287 316 C 287 316 287 316 287 316 L 60 316 L 60 91 C 60 91 60 91 60 91 L 183 82 C 209 80 224 65 224 41 C 224 15 209 0 183 0 C 132 0 81 -18 30 -18 L 30 -18 C -21 -18 -72 0 -123 0 C -149 0 -164 15 -164 41 C -164 65 -149 80 -123 82 L 0 91 C 0 91 0 91 0 91 L 0 607 C 0 607 0 607 0 607 L -123 616 C -149 616 -164 631 -164 657 C -164 683 -149 698 -123 698 C 43 698 209 716 375 716 L 405 698 L 423 698 C 423 648 405 598 405 548 C 405 495 417 507 364 507 C 315 507 327 495 323 548 L 314 671 C 314 671 314 671 314 671 L 60 671 L 60 344 Z"/>

<glyph unicode="G" horiz-adv-x="684.5" d="M 0 349 C 0 580 113 705 323 705 C 436 705 518 675 558 619 L 530 571 C 483 638 411 675 323 675 C 155 675 65 561 65 349 C 65 137 155 24 323 24 C 423 24 497 52 534 106 L 534 258 L 442 258 L 442 286 L 565 286 L 565 0 L 538 9 L 538 75 C 500 22 425 -7 323 -7 C 113 -7 0 118 0 349 Z"/>

<glyph unicode="H" horiz-adv-x="604.5" d="M 0 349 L 0 607 C 0 607 0 607 0 607 L -123 616 C -149 616 -164 631 -164 657 C -164 683 -149 698 -123 698 C -72 698 -21 716 30 716 L 30 716 C 81 716 132 698 183 698 C 209 698 224 683 224 657 C 224 633 209 618 183 616 L 60 607 C 60 607 60 607 60 607 L 60 355 L 446 355 L 446 607 C 446 607 446 607 446 607 L 323 616 C 297 616 282 631 282 657 C 282 683 297 698 323 698 C 374 698 425 716 476 716 L 476 716 C 527 716 578 698 629 698 C 655 698 670 683 670 657 C 670 633 655 618 629 616 L 506 607 C 506 607 506 607 506 607 L 506 91 C 506 91 506 91 506 91 L 629 82 C 655 80 670 65 670 41 C 670 15 655 0 629 0 C 578 0 527 -18 476 -18 L 476 -18 C 425 -18 374 0 323 0 C 297 0 282 15 282 41 C 282 65 297 80 323 82 L 446 91 C 446 91 446 91 446 91 L 446 304 L 60 304 L 60 91 C 60 91 60 91 60 91 L 183 82 C 209 80 224 65 224 41 C 224 15 209 0 183 0 C 132 0 81 -18 30 -18 L 30 -18 C -21 -18 -72 0 -123 0 C -149 0 -164 15 -164 41 C -164 65 -149 80 -123 82 L 0 91 C 0 91 0 91 0 91 L 0 349 Z"/>

<glyph unicode="I" horiz-adv-x="160.5" d="M 0 349 L 0 607 C 0 607 0 607 0 607 L -123 616 C -149 616 -164 631 -164 657 C -164 683 -149 698 -123 698 C -72 698 -21 716 30 716 L 30 716 C 81 716 132 698 183 698 C 209 698 224 683 224 657 C 224 633 209 618 183 616 L 60 607 C 60 607 60 607 60 607 L 60 91 C 60 91 60 91 60 91 L 183 82 C 209 80 224 65 224 41 C 224 15 209 0 183 0 C 132 0 81 -18 30 -18 L 30 -18 C -21 -18 -72 0 -123 0 C -149 0 -164 15 -164 41 C -164 65 -149 80 -123 82 L 0 91 C 0 91 0 91 0 91 L 0 349 Z"/>

<glyph unicode="J" horiz-adv-x="404.5" d="M 246 282 L 246 607 C 246 607 246 607 246 607 L 123 616 C 97 616 82 631 82 657 C 82 683 97 698 123 698 C 174 698 225 716 276 716 L 276 716 C 327 716 378 698 429 698 C 455 698 470 683 470 657 C 470 633 455 618 429 616 L 306 607 C 306 607 306 607 306 607 L 306 282 C 306 94 221 -7 62 -7 C 28 -7 7 -3 3 3 L 0 47 C 5 41 26 37 62 37 C 182 37 246 123 246 282 Z"/>

<glyph unicode="K" horiz-adv-x="624.5" d="M 60 208 L 60 91 C 60 91 60 91 60 91 L 183 82 C 209 80 224 65 224 41 C 224 15 209 0 183 0 C 132 0 81 -18 30 -18 L 30 -18 C -21 -18 -72 0 -123 0 C -149 0 -164 15 -164 41 C -164 65 -149 80 -123 82 L 0 91 C 0 91 0 91 0 91 L 0 607 C 0 607 0 607 0 607 L -123 616 C -149 616 -164 631 -164 657 C -164 683 -149 698 -123 698 C -72 698 -21 716 30 716 L 30 716 C 81 716 132 698 183 698 C 209 698 224 683 224 657 C 224 633 209 618 183 616 L 60 607 C 60 607 60 607 60 607 L 60 292 L 293 607 C 293 607 293 607 293 607 L 207 616 C 181 616 166 631 166 657 C 166 683 181 698 207 698 C 263 698 320 716 376 716 L 376 716 C 427 716 478 698 529 698 C 555 698 570 683 570 657 C 570 632 555 618 529 616 L 369 607 C 369 607 369 607 369 607 L 161 327 L 391 91 C 391 91 391 91 391 91 L 551 82 C 577 80 592 66 592 41 C 592 15 577 0 551 0 C 506 0 461 -18 416 -18 L 416 -18 C 352 -18 289 0 225 0 C 199 0 184 15 184 41 C 184 64 199 79 225 82 L 311 91 C 311 91 311 91 311 91 L 130 274 L 60 191 Z"/>

<glyph unicode="L" horiz-adv-x="492.5" d="M 394 0 L 30 -18 C -21 -18 -72 0 -123 0 C -149 0 -164 15 -164 41 C -164 65 -149 80 -123 82 L 0 91 C 0 91 0 91 0 91 L 0 607 C 0 607 0 607 0 607 L -123 616 C -149 616 -164 631 -164 657 C -164 683 -149 698 -123 698 C -72 698 -21 716 30 716 L 30 716 C 81 716 132 698 183 698 C 209 698 224 683 224 657 C 224 633 209 618 183 616 L 60 607 C 60 607 60 607 60 607 L 60 27 L 303 27 C 303 27 303 27 303 27 L 312 150 C 312 203 300 191 353 191 C 406 191 394 203 394 150 C 394 100 412 50 412 0 L 394 0 Z"/>

<glyph unicode="M" horiz-adv-x="830.5" d="M 72 698 L 366 39 L 662 698 L 704 716 C 755 716 806 698 857 698 C 884 698 898 683 898 657 C 898 633 884 618 857 616 L 734 607 C 734 607 734 607 734 607 L 734 91 C 734 91 734 91 734 91 L 857 82 C 884 80 898 65 898 41 C 898 15 884 0 857 0 C 806 0 755 -18 704 -18 L 704 -18 C 653 -18 602 0 551 0 C 525 0 510 15 510 41 C 510 65 525 80 551 82 L 674 91 C 674 91 674 91 674 91 L 674 632 L 381 0 L 350 0 L 60 632 L 60 91 C 60 91 60 91 60 91 L 183 82 C 209 80 224 65 224 41 C 224 15 209 0 183 0 C 142 0 101 -18 60 -18 L 0 -18 C -41 -18 -82 0 -123 0 C -149 0 -164 15 -164 41 C -164 65 -149 80 -123 82 L 0 91 C 0 91 0 91 0 91 L 0 607 C 0 607 0 607 0 607 L -123 616 C -149 616 -164 631 -164 657 C -164 683 -149 698 -123 698 C -68 698 -13 716 42 716 L 72 698 Z"/>

<glyph unicode="N" horiz-adv-x="623.5" d="M 74 698 L 466 92 L 466 607 C 466 607 466 607 466 607 L 343 616 C 317 616 302 631 302 657 C 302 683 317 698 343 698 C 394 698 445 716 496 716 L 496 716 C 547 716 598 698 649 698 C 675 698 690 683 690 657 C 690 633 675 618 649 616 L 526 607 C 526 607 526 607 526 607 L 526 0 L 456 0 L 60 608 L 60 91 C 60 91 60 91 60 91 L 183 82 C 209 80 224 65 224 41 C 224 15 209 0 183 0 C 127 0 71 -18 15 -18 L 15 -18 C -31 -18 -77 0 -123 0 C -149 0 -164 15 -164 41 C -164 65 -149 80 -123 82 L 0 91 C 0 91 0 91 0 91 L 0 607 C 0 607 0 607 0 607 L -123 616 C -149 616 -164 631 -164 657 C -164 683 -149 698 -123 698 C -67 698 -12 716 44 716 L 74 698 Z"/>

<glyph unicode="O" horiz-adv-x="725.5" d="M 0 349 C 0 580 109 705 310 705 C 512 705 621 580 621 349 C 621 118 512 -7 310 -7 C 109 -7 0 118 0 349 Z M 62 349 C 62 154 149 50 310 50 C 477 50 566 154 566 349 C 566 545 477 650 310 650 C 149 650 62 545 62 349 Z"/>

<glyph unicode="P" horiz-adv-x="570.5" d="M 238 698 C 391 698 473 624 473 486 C 473 347 391 273 238 273 L 60 273 L 60 91 C 60 91 60 91 60 91 L 183 82 C 209 80 224 65 224 41 C 224 15 209 0 183 0 C 132 0 81 -18 30 -18 L 30 -18 C -21 -18 -72 0 -123 0 C -149 0 -164 15 -164 41 C -164 65 -149 80 -123 82 L 0 91 C 0 91 0 91 0 91 L 0 607 C 0 607 0 607 0 607 L -123 616 C -149 616 -164 631 -164 657 C -164 683 -149 698 -123 698 C -72 698 -21 716 30 716 L 238 698 Z M 238 668 L 60 668 L 60 304 L 238 304 C 354 304 416 367 416 486 C 416 604 354 668 238 668 Z"/>

<glyph unicode="Q" horiz-adv-x="772.5" d="M 0 349 C 0 580 109 705 310 705 C 512 705 621 580 621 349 C 621 118 512 -7 310 -7 C 109 -7 0 118 0 349 Z M 438 60 L 666 10 L 666 -50 L 438 20 L 438 60 Z M 62 349 C 62 154 149 50 310 50 C 477 50 566 154 566 349 C 566 545 477 650 310 650 C 149 650 62 545 62 349 Z"/>

<glyph unicode="R" horiz-adv-x="598.5" d="M 245 698 C 393 698 473 624 473 486 C 473 370 414 297 305 278 L 433 91 C 433 91 433 91 433 91 L 556 82 C 582 80 597 65 597 41 C 597 15 582 0 556 0 C 523 0 491 -18 459 -18 L 423 -18 C 362 -18 301 0 241 0 C 214 0 200 15 200 41 C 200 65 214 80 241 82 L 364 91 C 364 91 364 91 364 91 L 245 273 L 60 273 L 60 91 C 60 91 60 91 60 91 L 183 82 C 209 80 224 65 224 41 C 224 15 209 0 183 0 C 132 0 81 -18 30 -18 L 30 -18 C -21 -18 -72 0 -123 0 C -149 0 -164 15 -164 41 C -164 65 -149 80 -123 82 L 0 91 C 0 91 0 91 0 91 L 0 607 C 0 607 0 607 0 607 L -123 616 C -149 616 -164 631 -164 657 C -164 683 -149 698 -123 698 C -72 698 -21 716 30 716 L 245 698 Z M 245 668 L 60 668 L 60 304 L 245 304 C 356 304 416 367 416 486 C 416 604 356 668 245 668 Z"/>

<glyph unicode="S" horiz-adv-x="543.5" d="M 0 530 C 0 644 70 705 200 705 C 268 705 328 692 371 667 L 356 639 C 315 662 261 675 200 675 C 90 675 31 624 31 530 C 31 460 90 410 200 386 C 317 361 381 293 381 190 C 381 62 307 -7 170 -7 C 113 -7 54 10 0 41 L 15 65 C 67 36 121 20 170 20 C 287 20 350 78 350 188 C 350 276 298 335 200 356 C 70 383 0 445 0 530 Z"/>

<glyph unicode="T" horiz-adv-x="607.5" d="M 0 698 L 488 698 L 506 698 C 506 648 488 598 488 548 C 488 495 500 507 447 507 C 397 507 410 495 406 548 L 397 671 C 397 671 397 671 397 671 L 274 671 L 274 91 C 274 91 274 91 274 91 L 397 82 C 423 80 438 65 438 41 C 438 15 423 0 397 0 C 346 0 295 -18 244 -18 L 244 -18 C 193 -18 142 0 91 0 C 65 0 50 15 50 41 C 50 65 65 80 91 82 L 214 91 C 214 91 214 91 214 91 L 214 671 L 91 671 C 91 671 91 671 91 671 L 82 548 C 82 522 67 507 41 507 C 15 507 0 522 0 548 C 0 598 -18 648 -18 698 L 0 698 Z"/>

<glyph unicode="U" horiz-adv-x="600.5" d="M 0 280 L 0 607 C 0 607 0 607 0 607 L -123 616 C -149 616 -164 631 -164 657 C -164 683 -149 698 -123 698 C -72 698 -21 716 30 716 L 30 716 C 81 716 132 698 183 698 C 209 698 224 683 224 657 C 224 633 209 618 183 616 L 60 607 C 60 607 60 607 60 607 L 60 280 C 60 117 121 29 235 29 C 368 29 440 117 440 280 L 440 607 C 440 607 440 607 440 607 L 317 616 C 291 616 276 631 276 657 C 276 683 291 698 317 698 C 368 698 418 716 469 716 L 471 716 C 522 716 572 698 623 698 C 649 698 664 683 664 657 C 664 633 649 618 623 616 L 500 607 C 500 607 500 607 500 607 L 500 280 C 500 97 407 -2 235 -2 C 82 -2 0 97 0 280 Z"/>

<glyph unicode="V" horiz-adv-x="693.5" d="M 268 0 L 35 607 C 35 607 35 607 35 607 L -88 616 C -114 616 -129 631 -129 657 C -129 683 -114 698 -88 698 C -48 698 -9 716 31 716 L 31 716 C 94 716 157 698 220 698 C 246 698 261 683 261 657 C 261 633 246 618 220 616 L 97 607 C 97 607 97 607 97 607 L 285 117 L 495 607 C 495 607 495 607 495 607 L 372 616 C 346 616 331 631 331 657 C 331 683 346 698 372 698 C 436 698 500 716 564 716 L 564 716 C 602 716 640 698 679 698 C 705 698 720 683 720 657 C 720 633 705 618 679 616 L 556 607 C 556 607 556 607 556 607 L 299 0 L 268 0 Z"/>

<glyph unicode="W" horiz-adv-x="940.5" d="M 175 0 L 23 607 C 23 607 23 607 23 607 L -100 616 C -126 616 -141 631 -141 657 C -141 683 -126 698 -100 698 C -57 698 -13 716 30 716 L 35 716 C 93 716 152 698 211 698 C 237 698 252 683 252 657 C 252 633 237 618 211 616 L 88 607 C 88 607 88 607 88 607 L 203 146 L 336 698 L 407 698 L 551 140 L 668 607 C 668 607 668 607 668 607 L 545 616 C 519 616 504 631 504 657 C 504 683 519 698 545 698 C 595 698 646 716 696 716 L 696 716 C 749 716 803 698 856 698 C 882 698 897 683 897 657 C 897 633 882 618 856 616 L 733 607 C 733 607 733 607 733 607 L 581 0 L 516 0 L 367 630 L 240 0 L 175 0 Z"/>

<glyph unicode="X" horiz-adv-x="632.5" d="M 247 364 L 83 607 C 83 607 83 607 83 607 L -40 616 C -67 616 -81 631 -81 657 C -81 683 -67 698 -40 698 C -9 698 23 716 55 716 L 55 716 C 116 716 176 698 237 698 C 263 698 278 683 278 657 C 278 634 263 619 237 616 L 151 607 C 151 607 151 607 151 607 L 281 414 L 412 607 C 412 607 412 607 412 607 L 326 616 C 300 616 285 631 285 657 C 285 683 300 698 326 698 C 387 698 447 716 508 716 L 508 716 C 540 716 571 698 603 698 C 629 698 644 683 644 657 C 644 633 629 618 603 616 L 480 607 C 480 607 480 607 480 607 L 315 364 L 500 91 C 500 91 500 91 500 91 L 623 82 C 649 80 663 65 663 41 C 663 15 649 0 623 0 C 591 0 559 -18 527 -18 L 527 -18 C 466 -18 406 0 345 0 C 319 0 304 15 304 41 C 304 64 319 79 345 82 L 431 91 C 431 91 431 91 431 91 L 281 313 L 130 91 C 130 91 130 91 130 91 L 216 82 C 242 79 257 64 257 41 C 257 15 242 0 216 0 C 155 0 95 -18 34 -18 L 34 -18 C 2 -18 -29 0 -61 0 C -87 0 -102 15 -102 41 C -102 65 -87 80 -61 82 L 62 91 C 62 91 62 91 62 91 L 247 364 Z"/>

<glyph unicode="Y" horiz-adv-x="632.5" d="M 218 278 L 47 607 C 47 607 47 607 47 607 L -76 616 C -102 616 -117 631 -117 657 C -117 683 -102 698 -76 698 C -40 698 -5 716 31 716 L 31 716 C 100 716 168 698 237 698 C 263 698 278 683 278 657 C 278 633 263 618 237 616 L 114 607 C 114 607 114 607 114 607 L 267 313 L 396 607 C 396 607 396 607 396 607 L 273 616 C 247 616 232 631 232 657 C 232 683 247 698 273 698 C 337 698 402 716 466 716 L 466 716 C 504 716 541 698 579 698 C 605 698 620 683 620 657 C 620 633 605 618 579 616 L 456 607 C 456 607 456 607 456 607 L 285 278 L 285 91 C 285 91 285 91 285 91 L 408 82 C 434 80 449 65 449 41 C 449 15 434 0 408 0 C 357 0 306 -18 255 -18 L 248 -18 C 197 -18 146 0 95 0 C 69 0 54 15 54 41 C 54 65 69 80 95 82 L 218 91 C 218 91 218 91 218 91 L 218 278 Z"/>

<glyph unicode="Z" horiz-adv-x="563.5" d="M 0 50 L 393 648 L 91 648 C 91 648 91 648 91 648 L 82 525 C 82 499 67 484 41 484 C 15 484 0 499 0 525 C 0 583 -18 640 -18 698 L 0 698 L 461 698 L 461 648 L 71 50 L 370 50 C 370 50 370 50 370 50 L 379 173 C 379 227 367 214 420 214 C 474 214 461 227 461 173 C 461 116 479 58 479 0 L 461 0 L 0 0 L 0 50 Z"/>

<glyph unicode="a" horiz-adv-x="446.5" d="M 0 118 C 0 221 102 276 290 276 C 290 387 255 447 189 447 C 123 447 72 433 46 406 L 39 426 C 64 456 111 472 174 472 C 269 472 321 403 321 276 L 321 93 L 323 8 L 298 0 L 294 46 C 280 12 231 -7 153 -7 C 54 -7 0 37 0 118 Z M 290 254 C 121 254 31 206 31 118 C 31 53 68 17 138 17 C 237 17 290 64 290 150 L 290 254 Z"/>

<glyph unicode="b" horiz-adv-x="514.5" d="M 31 715 L 31 407 C 60 449 113 472 183 472 C 320 472 395 388 395 233 C 395 77 320 -7 183 -7 C 109 -7 56 13 31 49 L 29 0 L 29 -18 C -21 -18 -72 0 -123 0 C -149 0 -164 15 -164 41 C -164 65 -149 80 -123 82 L 0 91 C 0 91 0 91 0 91 L 0 624 C 0 624 0 624 0 624 L -123 633 C -149 633 -164 648 -164 674 C -164 700 -149 715 -123 715 C -72 715 -21 733 31 733 L 31 715 Z M 364 233 C 364 371 305 445 197 445 C 88 445 29 371 29 233 C 29 95 88 21 197 21 C 305 21 364 95 364 233 Z"/>

<glyph unicode="c" horiz-adv-x="429.5" d="M 0 236 C 0 389 66 472 189 472 C 244 472 287 459 312 434 L 302 413 C 280 435 240 446 189 446 C 85 446 29 372 29 233 C 29 93 85 19 189 19 C 240 19 280 30 302 52 L 310 31 C 285 6 243 -7 189 -7 C 66 -7 0 78 0 236 Z"/>

<glyph unicode="d" horiz-adv-x="514.5" d="M 0 233 C 0 388 78 472 222 472 C 288 472 338 448 364 402 L 364 624 C 364 624 364 624 364 624 L 241 633 C 215 633 200 648 200 674 C 200 700 215 715 241 715 C 292 715 343 733 395 733 L 395 715 L 395 91 C 395 91 395 91 395 91 L 518 82 C 544 80 558 65 558 41 C 558 15 544 0 518 0 C 466 0 415 -18 364 -18 L 365 0 L 364 50 C 343 13 293 -7 222 -7 C 78 -7 0 77 0 233 Z M 31 233 C 31 95 89 21 198 21 C 307 21 365 95 365 233 C 365 371 307 445 198 445 C 89 445 31 371 31 233 Z"/>

<glyph unicode="e" horiz-adv-x="498.5" d="M 0 233 C 0 388 68 472 193 472 C 299 472 366 403 384 274 L 384 251 L 357 274 C 341 385 284 445 193 445 C 87 445 29 370 29 233 C 29 94 77 20 164 20 C 235 20 283 28 299 45 L 310 23 C 290 4 249 -7 193 -7 C 68 -7 0 77 0 233 Z M 15 274 L 384 274 L 384 251 L 15 251 L 15 274 Z"/>

<glyph unicode="f" horiz-adv-x="203.5" d="M 0 360 L 0 385 L 64 385 L 64 454 C 64 579 112 646 202 646 C 225 646 244 641 255 630 L 252 607 C 244 615 226 620 202 620 C 132 620 95 559 95 447 L 95 385 L 188 385 L 188 360 L 95 360 L 95 91 C 95 91 95 91 95 91 L 218 82 C 244 80 258 65 258 41 C 258 15 244 0 218 0 C 171 0 125 -18 79 -18 L 79 -18 C 33 -18 -13 0 -59 0 C -85 0 -100 15 -100 41 C -100 65 -85 80 -59 82 L 64 91 C 64 91 64 91 64 91 L 64 360 L 0 360 Z"/>

<glyph unicode="g" horiz-adv-x="408.5" d="M 0 233 C 0 388 76 472 216 472 C 273 472 321 448 353 402 L 353 465 L 368 483 C 414 483 460 465 507 465 C 533 465 547 450 547 424 C 547 400 533 385 507 383 L 384 374 C 384 374 384 374 384 374 L 384 35 C 384 -124 325 -210 216 -210 C 133 -210 75 -197 51 -173 L 58 -153 C 79 -174 135 -186 216 -186 C 305 -186 353 -108 353 35 C 334 8 286 -7 216 -7 C 76 -7 0 77 0 233 Z M 192 445 C 87 445 31 371 31 233 C 31 95 87 21 192 21 C 297 21 353 95 353 233 C 353 371 297 445 192 445 Z"/>

<glyph unicode="h" horiz-adv-x="447.5" d="M 31 715 L 31 400 C 70 447 122 472 179 472 C 276 472 328 419 328 320 L 328 91 C 328 91 328 91 328 91 L 451 82 C 477 80 491 65 491 41 C 491 15 477 0 451 0 C 404 0 358 -18 312 -18 L 312 -18 C 278 -18 245 0 211 0 C 185 0 170 15 170 41 C 170 64 185 79 211 82 L 297 91 C 297 91 297 91 297 91 L 297 320 C 297 402 255 446 177 446 C 124 446 72 419 31 370 L 31 91 C 31 91 31 91 31 91 L 117 82 C 143 79 158 64 158 41 C 158 15 143 0 117 0 C 83 0 49 -18 15 -18 L 15 -18 C -31 -18 -77 0 -123 0 C -149 0 -164 15 -164 41 C -164 65 -149 80 -123 82 L 0 91 C 0 91 0 91 0 91 L 0 624 C 0 624 0 624 0 624 L -123 633 C -149 633 -164 648 -164 674 C -164 700 -149 715 -123 715 C -77 715 -31 733 15 733 L 31 715 Z"/>

<glyph unicode="i" horiz-adv-x="167.5" d="M 31 465 L 31 91 C 31 91 31 91 31 91 L 154 82 C 180 80 194 65 194 41 C 194 15 180 0 154 0 C 107 0 61 -18 15 -18 L 15 -18 C -31 -18 -77 0 -123 0 C -149 0 -164 15 -164 41 C -164 65 -149 80 -123 82 L 0 91 C 0 91 0 91 0 91 L 0 374 C 0 374 0 374 0 374 L -123 383 C -149 383 -164 398 -164 424 C -164 450 -149 465 -123 465 C -77 465 -31 483 15 483 L 31 465 Z M 13 545 C 1 545 -5 552 -5 564 C -5 576 1 583 13 583 C 25 583 32 576 32 564 C 32 552 25 545 13 545 Z"/>

<glyph unicode="j" horiz-adv-x="176.5" d="M 198 66 C 198 -113 129 -210 1 -210 L 0 -186 C 109 -186 167 -98 167 66 L 167 374 C 167 374 167 374 167 374 L 44 383 C 18 383 3 398 3 424 C 3 450 18 465 44 465 C 90 465 136 483 182 483 L 198 465 L 198 66 Z M 182 545 C 170 545 164 552 164 564 C 164 576 170 583 182 583 C 194 583 201 576 201 564 C 201 552 194 545 182 545 Z"/>

<glyph unicode="k" horiz-adv-x="482.5" d="M 31 715 L 31 91 C 31 91 31 91 31 91 L 154 82 C 180 80 194 65 194 41 C 194 15 180 0 154 0 C 107 0 61 -18 15 -18 L 15 -18 C -31 -18 -77 0 -123 0 C -149 0 -164 15 -164 41 C -164 65 -149 80 -123 82 L 0 91 C 0 91 0 91 0 91 L 0 624 C 0 624 0 624 0 624 L -123 633 C -149 633 -164 648 -164 674 C -164 700 -149 715 -123 715 C -77 715 -31 733 15 733 L 31 715 Z M 31 221 L 179 374 C 179 374 179 374 179 374 L 56 383 C 30 383 15 398 15 424 C 15 450 30 465 56 465 C 132 465 207 483 283 483 L 283 483 C 299 483 316 465 333 465 C 359 465 374 450 374 424 C 374 400 359 385 333 383 L 210 374 C 210 374 210 374 210 374 L 63 223 L 219 91 C 219 91 219 91 219 91 L 379 82 C 405 80 420 66 420 41 C 420 15 405 0 379 0 C 355 0 332 -18 308 -18 L 293 0 L 31 221 Z"/>

<glyph unicode="l" horiz-adv-x="92.5" d="M 31 715 L 31 91 C 31 91 31 91 31 91 L 154 82 C 180 80 194 65 194 41 C 194 15 180 0 154 0 C 107 0 61 -18 15 -18 L 15 -18 C -31 -18 -77 0 -123 0 C -149 0 -164 15 -164 41 C -164 65 -149 80 -123 82 L 0 91 C 0 91 0 91 0 91 L 0 624 C 0 624 0 624 0 624 L -123 633 C -149 633 -164 648 -164 674 C -164 700 -149 715 -123 715 C -77 715 -31 733 15 733 L 31 715 Z"/>

<glyph unicode="m" horiz-adv-x="764.5" d="M 29 465 L 29 390 C 50 443 103 472 180 472 C 256 472 309 441 332 384 C 355 441 410 472 488 472 C 590 472 645 403 645 276 L 645 91 C 645 91 645 91 645 91 L 768 82 C 794 80 808 65 808 41 C 808 15 794 0 768 0 C 716 0 665 -18 614 -18 L 644 -18 C 605 -18 567 0 528 0 C 502 0 487 15 487 41 C 487 64 502 79 528 82 L 614 91 C 614 91 614 91 614 91 L 614 320 C 614 402 569 446 484 446 C 438 446 387 416 340 360 L 340 91 C 340 91 340 91 340 91 L 426 82 C 453 79 467 64 467 41 C 467 15 453 0 426 0 C 388 0 349 -18 310 -18 L 342 -18 C 303 -18 265 0 226 0 C 200 0 185 15 185 41 C 185 64 200 79 226 82 L 312 91 C 312 91 312 91 312 91 L 312 320 C 312 402 264 446 175 446 C 128 446 78 416 31 360 L 31 91 C 31 91 31 91 31 91 L 117 82 C 143 79 158 64 158 41 C 158 15 143 0 117 0 C 78 0 39 -18 0 -18 L 30 -18 C -21 -18 -72 0 -123 0 C -149 0 -164 15 -164 41 C -164 65 -149 80 -123 82 L 0 91 C 0 91 0 91 0 91 L 0 374 C 0 374 0 374 0 374 L -123 383 C -149 383 -164 398 -164 424 C -164 450 -149 465 -123 465 C -72 465 -21 483 30 483 L 29 465 Z"/>

<glyph unicode="n" horiz-adv-x="459.5" d="M 31 465 L 31 400 C 70 447 122 472 179 472 C 276 472 328 419 328 320 L 328 91 C 328 91 328 91 328 91 L 451 82 C 477 80 491 65 491 41 C 491 15 477 0 451 0 C 404 0 358 -18 312 -18 L 312 -18 C 278 -18 245 0 211 0 C 185 0 170 15 170 41 C 170 64 185 79 211 82 L 297 91 C 297 91 297 91 297 91 L 297 320 C 297 402 255 446 177 446 C 124 446 72 419 31 370 L 31 91 C 31 91 31 91 31 91 L 117 82 C 143 79 158 64 158 41 C 158 15 143 0 117 0 C 83 0 49 -18 15 -18 L 15 -18 C -31 -18 -77 0 -123 0 C -149 0 -164 15 -164 41 C -164 65 -149 80 -123 82 L 0 91 C 0 91 0 91 0 91 L 0 374 C 0 374 0 374 0 374 L -123 383 C -149 383 -164 398 -164 424 C -164 450 -149 465 -123 465 C -77 465 -31 483 15 483 L 31 465 Z"/>

<glyph unicode="o" horiz-adv-x="513.5" d="M 0 233 C 0 388 69 472 197 472 C 325 472 394 388 394 233 C 394 77 325 -7 197 -7 C 69 -7 0 77 0 233 Z M 31 233 C 31 95 89 21 197 21 C 305 21 363 95 363 233 C 363 371 305 445 197 445 C 89 445 31 371 31 233 Z"/>

<glyph unicode="p" horiz-adv-x="514.5" d="M 29 465 L 31 397 C 71 446 121 472 173 472 C 317 472 395 388 395 233 C 395 77 317 -7 173 -7 C 114 -7 64 14 31 54 L 31 -119 C 31 -119 31 -119 31 -119 L 154 -128 C 180 -130 194 -145 194 -169 C 194 -195 180 -210 154 -210 C 107 -210 61 -228 15 -228 L 15 -228 C -31 -228 -77 -210 -123 -210 C -149 -210 -164 -195 -164 -169 C -164 -145 -149 -130 -123 -128 L 0 -119 C 0 -119 0 -119 0 -119 L 0 374 C 0 374 0 374 0 374 L -123 383 C -149 383 -164 398 -164 424 C -164 450 -149 465 -123 465 C -72 465 -21 483 30 483 L 29 465 Z M 197 444 C 88 444 29 370 29 233 C 29 94 88 20 197 20 C 305 20 364 94 364 233 C 364 370 305 444 197 444 Z"/>

<glyph unicode="q" horiz-adv-x="514.5" d="M 0 233 C 0 388 78 472 222 472 C 289 472 339 452 365 414 L 365 465 L 379 483 C 425 483 471 465 517 465 C 544 465 558 450 558 424 C 558 400 544 385 517 383 L 394 374 C 394 374 394 374 394 374 L 394 -119 C 394 -119 394 -119 394 -119 L 517 -128 C 544 -130 558 -145 558 -169 C 558 -195 544 -210 517 -210 C 471 -210 425 -228 379 -228 L 379 -228 C 333 -228 287 -210 241 -210 C 215 -210 200 -195 200 -169 C 200 -145 215 -130 241 -128 L 364 -119 C 364 -119 364 -119 364 -119 L 364 55 C 336 15 286 -7 222 -7 C 78 -7 0 77 0 233 Z M 31 233 C 31 94 90 20 199 20 C 309 20 368 94 368 233 C 368 370 309 444 199 444 C 90 444 31 370 31 233 Z"/>

<glyph unicode="r" horiz-adv-x="228.5" d="M 31 465 L 31 378 C 73 439 137 472 212 472 C 264 472 294 469 298 464 L 258 435 C 253 440 228 443 185 443 C 110 443 55 409 31 348 L 31 91 C 31 91 31 91 31 91 L 154 82 C 180 80 194 65 194 41 C 194 15 180 0 154 0 C 107 0 61 -18 15 -18 L 15 -18 C -19 -18 -52 0 -86 0 C -112 0 -127 15 -127 41 C -127 64 -112 79 -86 82 L 0 91 C 0 91 0 91 0 91 L 0 374 C 0 374 0 374 0 374 L -123 383 C -149 383 -164 398 -164 424 C -164 450 -149 465 -123 465 C -72 465 -21 483 30 483 L 31 465 Z"/>

<glyph unicode="s" horiz-adv-x="320.5" d="M 0 345 C 0 428 57 472 163 472 C 210 472 258 459 301 434 L 286 411 C 247 433 204 445 163 445 C 77 445 31 411 31 347 C 31 295 77 261 163 249 C 259 236 311 191 311 121 C 311 38 250 -7 139 -7 C 103 -7 54 10 0 41 L 15 65 C 67 36 110 20 139 20 C 231 20 280 54 280 119 C 280 173 239 208 163 219 C 57 233 0 278 0 345 Z"/>

<glyph unicode="t" horiz-adv-x="292.5" d="M 0 465 L 64 465 L 64 563 L 95 567 L 95 465 L 173 465 L 173 440 L 95 440 L 95 41 C 95 26 105 19 126 19 C 146 19 157 19 158 20 L 158 0 C 154 -5 142 -7 122 -7 C 84 -7 64 11 64 46 L 64 440 L 0 440 L 0 465 Z"/>

<glyph unicode="u" horiz-adv-x="465.5" d="M 31 465 L 31 133 C 31 57 80 17 173 17 C 265 17 315 43 315 91 L 315 374 C 315 374 315 374 315 374 L 192 383 C 166 383 151 398 151 424 C 151 450 166 465 192 465 C 238 465 284 483 330 483 L 346 465 L 346 91 C 346 91 346 91 346 91 L 469 82 C 495 80 509 65 509 41 C 509 15 495 0 469 0 C 422 0 376 -18 330 -18 L 317 0 L 315 50 C 289 13 234 -7 158 -7 C 55 -7 0 59 0 182 L 0 374 C 0 374 0 374 0 374 L -92 383 C -118 383 -133 398 -133 424 C -133 450 -118 465 -92 465 C -56 465 -21 483 15 483 L 31 465 Z"/>

<glyph unicode="v" horiz-adv-x="528.5" d="M 182 0 L 36 374 C 36 374 36 374 36 374 L -87 383 C -114 383 -128 398 -128 424 C -128 450 -114 465 -87 465 C -53 465 -19 483 15 483 L 15 483 C 73 483 131 465 189 465 C 215 465 230 450 230 424 C 230 400 215 385 189 383 L 66 374 C 66 374 66 374 66 374 L 196 43 L 339 374 C 339 374 339 374 339 374 L 216 383 C 190 383 175 398 175 424 C 175 450 190 465 216 465 C 275 465 334 483 393 483 L 393 483 C 427 483 460 465 493 465 C 519 465 534 450 534 424 C 534 400 519 385 493 383 L 370 374 C 370 374 370 374 370 374 L 213 0 L 182 0 Z"/>

<glyph unicode="w" horiz-adv-x="720.5" d="M 191 0 L 37 374 C 37 374 37 374 37 374 L -86 383 C -112 383 -127 398 -127 424 C -127 450 -112 465 -86 465 C -52 465 -18 483 15 483 L 15 483 C 76 483 136 465 197 465 C 223 465 238 450 238 424 C 238 400 223 385 197 383 L 74 374 C 74 374 74 374 74 374 L 201 106 L 345 465 L 377 465 L 525 104 L 656 374 C 656 374 656 374 656 374 L 533 383 C 507 383 492 398 492 424 C 492 450 507 465 533 465 C 589 465 644 483 700 483 L 700 483 C 739 483 777 465 816 465 C 842 465 857 450 857 424 C 857 400 842 385 816 383 L 693 374 C 693 374 693 374 693 374 L 539 0 L 508 0 L 361 431 L 222 0 L 191 0 Z"/>

<glyph unicode="x" horiz-adv-x="490.5" d="M 196 236 L 86 374 C 86 374 86 374 86 374 L -37 383 C -63 383 -78 398 -78 424 C -78 450 -63 465 -37 465 C -15 465 7 483 30 483 L 30 483 C 88 483 147 465 206 465 C 232 465 247 450 247 424 C 247 401 232 386 206 383 L 120 374 C 120 374 120 374 120 374 L 214 257 L 311 374 C 311 374 311 374 311 374 L 225 383 C 199 383 184 398 184 424 C 184 450 199 465 225 465 C 284 465 343 483 403 483 L 403 483 C 424 483 446 465 467 465 C 494 465 508 450 508 424 C 508 400 494 385 467 383 L 344 374 C 344 374 344 374 344 374 L 230 236 L 347 91 C 347 91 347 91 347 91 L 470 82 C 496 80 511 65 511 41 C 511 15 496 0 470 0 C 447 0 425 -18 403 -18 L 403 -18 C 352 -18 301 0 251 0 C 225 0 210 15 210 41 C 210 63 225 78 251 82 L 312 91 C 312 91 312 91 312 91 L 213 215 L 110 91 C 110 91 110 91 110 91 L 172 82 C 198 78 213 63 213 41 C 213 15 198 0 172 0 C 120 0 69 -18 17 -18 L 17 -18 C -4 -18 -26 0 -47 0 C -74 0 -88 15 -88 41 C -88 65 -74 80 -47 82 L 76 91 C 76 91 76 91 76 91 L 196 236 Z"/>

<glyph unicode="y" horiz-adv-x="536.5" d="M 218 0 L 212 0 L 42 374 C 42 374 42 374 42 374 L -81 383 C -108 383 -122 398 -122 424 C -122 450 -108 465 -81 465 C -49 465 -17 483 15 483 L 18 483 C 79 483 139 465 199 465 C 225 465 240 450 240 424 C 240 400 225 385 199 383 L 76 374 C 76 374 76 374 76 374 L 230 45 L 346 374 C 346 374 346 374 346 374 L 223 383 C 197 383 182 398 182 424 C 182 450 197 465 223 465 C 280 465 336 483 393 483 L 396 483 C 432 483 467 465 503 465 C 529 465 544 450 544 424 C 544 400 529 385 503 383 L 380 374 C 380 374 380 374 380 374 L 175 -210 L 158 -228 C 102 -228 46 -210 -10 -210 C -36 -210 -51 -195 -51 -169 C -51 -144 -36 -129 -10 -128 L 174 -119 C 174 -119 174 -119 174 -119 L 218 0 Z"/>

<glyph unicode="z" horiz-adv-x="436.5" d="M 0 0 L 0 23 L 255 439 L 94 439 C 90 439 91 439 91 439 L 82 316 C 82 290 67 275 42 275 C 17 275 3 290 3 316 C 3 366 -15 415 -15 465 L 3 465 L 295 465 L 295 442 L 41 26 L 211 26 C 211 26 211 26 211 26 L 220 149 C 220 202 207 189 261 189 C 314 189 302 202 302 149 C 302 99 320 50 320 0 L 302 0 L 0 0 Z"/>

<glyph unicode="." horiz-adv-x="169.5" d="M 15 0 C 5 0 0 5 0 15 C 0 25 5 31 15 31 C 25 31 31 25 31 15 C 31 5 25 0 15 0 Z"/>

<glyph unicode="," horiz-adv-x="254.5" d="M 87 84 L 126 84 L 28 -87 L 0 -87 L 87 84 Z"/>

<glyph unicode=";" horiz-adv-x="254.5" d="M 0 0 Z M 81 150 C 68 150 62 157 62 169 C 62 181 68 188 81 188 C 93 188 99 181 99 169 C 99 157 93 150 81 150 Z M 87 84 L 126 84 L 28 -87 L 0 -87 L 87 84 Z"/>

<glyph unicode="(" horiz-adv-x="254.5" d="M 0 233 C 0 450 27 613 76 698 L 131 698 C 85 619 60 456 60 233 C 60 24 85 -131 131 -210 L 76 -210 C 27 -125 0 30 0 233 Z"/>

<glyph unicode=")" horiz-adv-x="254.5" d="M 180 233 C 180 472 160 635 124 698 L 70 698 C 102 641 120 478 120 233 C 120 2 102 -153 70 -210 L 124 -210 C 160 -147 180 8 180 233 Z"/>

<glyph unicode="/" horiz-adv-x="134.5" d="M 0 -7 L 140 705 L 200 705 L 60 -7 L 0 -7 Z"/>

<glyph unicode=":" horiz-adv-x="254.5" d="M 0 0 Z M 31 101 C 18 101 12 107 12 119 C 12 131 18 138 31 138 C 43 138 49 131 49 119 C 49 107 43 101 31 101 Z M 31 0 C 18 0 12 7 12 19 C 12 31 18 38 31 38 C 43 38 49 31 49 19 C 49 7 43 0 31 0 Z"/>

<glyph unicode="!" horiz-adv-x="150.5" d="M 0 715 L 31 715 L 31 101 L 0 101 L 0 715 Z M 15 -7 C 3 -7 -3 0 -3 12 C -3 24 3 31 15 31 C 27 31 34 24 34 12 C 34 0 27 -7 15 -7 Z"/>

<glyph unicode="?" horiz-adv-x="500.5" d="M 0 557 C 26 653 103 705 220 705 C 363 705 440 636 440 508 C 440 418 412 341 360 289 C 288 217 250 145 250 81 L 195 81 C 195 148 232 221 300 289 C 352 341 380 418 380 508 C 380 603 322 654 214 654 C 124 654 66 617 48 549 L 0 557 Z M 223 -7 C 211 -7 204 0 204 12 C 204 24 211 31 223 31 C 235 31 241 24 241 12 C 241 0 235 -7 223 -7 Z"/>

<glyph unicode="&#x27;" horiz-adv-x="40.5" d="M 0 698 L 31 698 L 31 668 L 15 637 L 0 637 L 15 668 L 0 668 L 0 698 Z"/>

<glyph unicode="-" horiz-adv-x="310.5" d="M 0 239 L 0 267 L 300 267 L 300 239 L 0 239 Z"/>

<glyph unicode="—" horiz-adv-x="610.5" d="M 0 239 L 0 267 L 600 267 L 600 239 L 0 239 Z"/>

<glyph unicode=" " horiz-adv-x="70.5" d="M 0 0 Z"/>

</font>
</defs>
</svg>
